<?xml version="1.0" encoding="UTF-8"?>
<svg version="1.1" xmlns="http://www.w3.org/2000/svg" width="256" height="256">
<path d="M0 0 C1.65 0 3.3 0 5 0 C5 0.99 5 1.98 5 3 C5.66 3 6.32 3 7 3 C8.44526736 4.73548169 9.8087222 6.53975963 11.125 8.375 C12.21167969 9.87160156 12.21167969 9.87160156 13.3203125 11.3984375 C15 14 15 14 15 16 C15.66 16 16.32 16 17 16 C17.99 18.97 17.99 18.97 19 22 C19.66 22 20.32 22 21 22 C21.33 24.64 21.66 27.28 22 30 C22.66 30 23.32 30 24 30 C25.15720986 40.2898988 25.32374314 50.58564162 25.55224609 60.92700195 C25.60382247 63.2027506 25.66102676 65.47830652 25.71875 67.75390625 C25.73232544 68.45278458 25.74590088 69.1516629 25.7598877 69.87171936 C25.81153494 73.56000184 25.81153494 73.56000184 27 77 C27.09724737 78.94990142 27.13076619 80.9031449 27.1328125 82.85546875 C27.13410156 84.03560547 27.13539063 85.21574219 27.13671875 86.43164062 C27.13285156 87.67107422 27.12898437 88.91050781 27.125 90.1875 C27.12886719 91.40759766 27.13273438 92.62769531 27.13671875 93.88476562 C27.13478516 95.66463867 27.13478516 95.66463867 27.1328125 97.48046875 C27.13168457 98.56223389 27.13055664 99.64399902 27.12939453 100.75854492 C27 104 27 104 26.50375366 107.29586792 C26.03449388 110.74636432 25.85049474 114.02900523 25.81054688 117.50756836 C25.79382935 118.75674545 25.77711182 120.00592255 25.7598877 121.29295349 C25.74986473 122.2808981 25.74986473 122.2808981 25.73963928 123.28880119 C25.71832536 125.38153722 25.69132123 127.47413597 25.66296387 129.56678772 C25.60360463 134.02363621 25.55144391 138.48055417 25.5 142.9375 C25.44018563 148.07929485 25.37724249 153.22102465 25.30812073 158.36270332 C25.28215635 160.39393867 25.26104651 162.42523429 25.2401123 164.45652771 C25.11960354 173.6657567 24.64938299 182.81607926 24 192 C19.71 192 15.42 192 11 192 C11 192.66 11 193.32 11 194 C7.29251453 194.5064233 3.58389201 195.00399155 -0.125 195.5 C-1.17171875 195.64308594 -2.2184375 195.78617188 -3.296875 195.93359375 C-8.22695492 196.58885754 -13.01296747 197.20707401 -18 197 C-18 197.66 -18 198.32 -18 199 C-18.97839844 199.18175781 -19.95679688 199.36351562 -20.96484375 199.55078125 C-27.48156292 200.79071377 -33.74256455 202.10174397 -39.9921875 204.37109375 C-43.28906982 205.40377479 -46.56688381 205.68789853 -50 206 C-50 206.66 -50 207.32 -50 208 C-52.31 208 -54.62 208 -57 208 C-58.40742022 205.18515955 -57.66652164 203.43063887 -57.0625 200.375 C-56.86785156 199.37210938 -56.67320312 198.36921875 -56.47265625 197.3359375 C-56.31667969 196.56507813 -56.16070312 195.79421875 -56 195 C-55.34 195 -54.68 195 -54 195 C-54 193.35 -54 191.7 -54 190 C-56.20923793 190.453953 -58.41735553 190.91336006 -60.625 191.375 C-61.85476562 191.63023437 -63.08453125 191.88546875 -64.3515625 192.1484375 C-67.91290836 192.91463195 -67.91290836 192.91463195 -70.93359375 194.0078125 C-74.72832612 195.23566221 -78.5067787 195.86747014 -82.4375 196.5 C-86.586887 197.17127861 -90.5896576 197.88086833 -94.6328125 199.0546875 C-97.96608952 199.99047989 -100.99021079 200.39259848 -104.4375 200.625 C-105.48808594 200.69976562 -106.53867188 200.77453125 -107.62109375 200.8515625 C-108.40613281 200.90054688 -109.19117187 200.94953125 -110 201 C-110 201.66 -110 202.32 -110 203 C-113.96 203.33 -117.92 203.66 -122 204 C-121.72112477 198.56193303 -119.42303905 195.26141097 -116.375 190.953125 C-114.96350025 189.05133277 -114.96350025 189.05133277 -114 187 C-113.34 187 -112.68 187 -112 187 C-111.67 185.35 -111.34 183.7 -111 182 C-110.34 182 -109.68 182 -109 182 C-108.34 180.02 -107.68 178.04 -107 176 C-106.34 176 -105.68 176 -105 176 C-104.7421875 175.28972656 -104.484375 174.57945312 -104.21875 173.84765625 C-102.91339091 170.79763454 -101.31955485 168.20923715 -99.5 165.4375 C-97.48075836 162.35302284 -95.5708059 159.33796253 -94 156 C-93.34 156 -92.68 156 -92 156 C-91.34 154.02 -90.68 152.04 -90 150 C-89.34 150 -88.68 150 -88 150 C-87.67 148.35 -87.34 146.7 -87 145 C-86.34 145 -85.68 145 -85 145 C-84.01 142.03 -84.01 142.03 -83 139 C-82.34 139 -81.68 139 -81 139 C-80.7421875 138.28972656 -80.484375 137.57945312 -80.21875 136.84765625 C-78.91339091 133.79763454 -77.31955485 131.20923715 -75.5 128.4375 C-73.48075836 125.35302284 -71.5708059 122.33796253 -70 119 C-69.34 119 -68.68 119 -68 119 C-67.34 117.02 -66.68 115.04 -66 113 C-65.34 113 -64.68 113 -64 113 C-63.67 111.35 -63.34 109.7 -63 108 C-62.34 108 -61.68 108 -61 108 C-60.34 106.02 -59.68 104.04 -59 102 C-58.34 102 -57.68 102 -57 102 C-56.7421875 101.28972656 -56.484375 100.57945313 -56.21875 99.84765625 C-54.91339091 96.79763454 -53.31955485 94.20923715 -51.5 91.4375 C-49.48075836 88.35302284 -47.5708059 85.33796253 -46 82 C-45.34 82 -44.68 82 -44 82 C-43.34 80.02 -42.68 78.04 -42 76 C-41.34 76 -40.68 76 -40 76 C-39.67 74.35 -39.34 72.7 -39 71 C-38.34 71 -37.68 71 -37 71 C-37 70.34 -37 69.68 -37 69 C-35.68 69 -34.36 69 -33 69 C-33.33 73.62 -33.66 78.24 -34 83 C-34.66 83 -35.32 83 -36 83 C-35.67 93.56 -35.34 104.12 -35 115 C-34.34 115.33 -33.68 115.66 -33 116 C-32.92652344 115.00419922 -32.92652344 115.00419922 -32.8515625 113.98828125 C-32.77679688 113.10527344 -32.70203125 112.22226563 -32.625 111.3125 C-32.55539063 110.44238281 -32.48578125 109.57226562 -32.4140625 108.67578125 C-31.97446468 105.834984 -31.07761049 103.66388328 -30 101 C-29.0983831 97.85095417 -28.30240709 94.67558686 -27.5 91.5 C-26.24065659 86.51605307 -24.91010744 81.77526859 -23 77 C-22.10208156 73.84987689 -21.30241283 70.67560958 -20.5 67.5 C-19.2419528 62.52118291 -17.94614031 57.75898277 -16 53 C-15.32684166 50.59080173 -14.68326495 48.17322705 -14.0625 45.75 C-12.80601984 40.9148782 -11.43222812 36.16933079 -9.78515625 31.453125 C-8.31028074 26.84505625 -7.16519515 22.13883408 -5.96484375 17.453125 C-5.14297748 14.51170887 -4.17423439 11.81161301 -3 9 C-2.44554163 7.40020958 -1.90321244 5.79614698 -1.375 4.1875 C-1.11460937 3.39730469 -0.85421875 2.60710938 -0.5859375 1.79296875 C-0.39257812 1.20128906 -0.19921875 0.60960937 0 0 Z " fill="#FE6500" transform="translate(185,12)"/>
<path d="M0 0 C1.32 0 2.64 0 4 0 C3.67 4.62 3.34 9.24 3 14 C2.34 14 1.68 14 1 14 C1.11796454 18.53916919 1.24219113 23.07810642 1.37231445 27.61694336 C1.41571985 29.16214289 1.45739071 30.70739214 1.49731445 32.25268555 C1.55488199 34.46939096 1.61861424 36.6858448 1.68359375 38.90234375 C1.70030624 39.5971434 1.71701874 40.29194305 1.73423767 41.00779724 C1.56502856 44.28762029 1.56502856 44.28762029 3 47 C2.93835389 49.02794435 2.87218356 51.05585621 2.78271484 53.08276367 C2.43031265 62.49190224 3.61507688 69.28129687 7.54296875 77.80859375 C8.77698471 80.51151878 9.58458804 82.86126532 10.1875 85.75 C11.03596987 89.14387949 11.50558982 89.79340638 14 92 C17.70601268 98.02227061 20.71989225 103.98931643 22 111 C19.6263603 111.50734284 17.25142575 112.00602386 14.875 112.5 C14.20984375 112.64308594 13.5446875 112.78617187 12.859375 112.93359375 C8.83943578 113.7612283 5.10095101 114.15330658 1 114 C1 114.66 1 115.32 1 116 C-0.33804688 116.16435547 -0.33804688 116.16435547 -1.703125 116.33203125 C-2.87359375 116.49058594 -4.0440625 116.64914063 -5.25 116.8125 C-6.41015625 116.96332031 -7.5703125 117.11414063 -8.765625 117.26953125 C-11.9575871 117.75769967 -11.9575871 117.75769967 -13.9609375 119.4765625 C-16.90384589 121.67528716 -19.78151851 121.93489595 -23.375 122.5625 C-28.72986255 123.51142227 -28.72986255 123.51142227 -33.94921875 124.99609375 C-37.73715265 126.24257136 -41.50792434 126.86765449 -45.4375 127.5 C-49.586887 128.17127861 -53.5896576 128.88086833 -57.6328125 130.0546875 C-60.96608952 130.99047989 -63.99021079 131.39259848 -67.4375 131.625 C-68.48808594 131.69976562 -69.53867188 131.77453125 -70.62109375 131.8515625 C-71.40613281 131.90054688 -72.19117187 131.94953125 -73 132 C-73 132.66 -73 133.32 -73 134 C-76.96 134.33 -80.92 134.66 -85 135 C-84.72112477 129.56193303 -82.42303905 126.26141097 -79.375 121.953125 C-77.96350025 120.05133277 -77.96350025 120.05133277 -77 118 C-76.34 118 -75.68 118 -75 118 C-74.67 116.35 -74.34 114.7 -74 113 C-73.34 113 -72.68 113 -72 113 C-71.34 111.02 -70.68 109.04 -70 107 C-69.34 107 -68.68 107 -68 107 C-67.7421875 106.28972656 -67.484375 105.57945312 -67.21875 104.84765625 C-65.91339091 101.79763454 -64.31955485 99.20923715 -62.5 96.4375 C-60.48075836 93.35302284 -58.5708059 90.33796253 -57 87 C-56.34 87 -55.68 87 -55 87 C-54.34 85.02 -53.68 83.04 -53 81 C-52.34 81 -51.68 81 -51 81 C-50.67 79.35 -50.34 77.7 -50 76 C-49.34 76 -48.68 76 -48 76 C-47.34 74.02 -46.68 72.04 -46 70 C-45.34 70 -44.68 70 -44 70 C-43.7421875 69.28972656 -43.484375 68.57945312 -43.21875 67.84765625 C-41.91339091 64.79763454 -40.31955485 62.20923715 -38.5 59.4375 C-36.48075836 56.35302284 -34.5708059 53.33796253 -33 50 C-32.34 50 -31.68 50 -31 50 C-30.34 48.02 -29.68 46.04 -29 44 C-28.34 44 -27.68 44 -27 44 C-26.67 42.35 -26.34 40.7 -26 39 C-25.34 39 -24.68 39 -24 39 C-23.34 37.02 -22.68 35.04 -22 33 C-21.34 33 -20.68 33 -20 33 C-19.7421875 32.28972656 -19.484375 31.57945313 -19.21875 30.84765625 C-17.91339091 27.79763454 -16.31955485 25.20923715 -14.5 22.4375 C-12.48075836 19.35302284 -10.5708059 16.33796253 -9 13 C-8.34 13 -7.68 13 -7 13 C-6.34 11.02 -5.68 9.04 -5 7 C-4.34 7 -3.68 7 -3 7 C-2.67 5.35 -2.34 3.7 -2 2 C-1.34 2 -0.68 2 0 2 C0 1.34 0 0.68 0 0 Z " fill="#660000" transform="translate(148,81)"/>
<path d="M0 0 C13.40419191 -0.26857688 26.73469615 0.46166439 40.11352539 1.22680664 C43.84944002 1.4396041 47.58578754 1.6430657 51.32226562 1.84570312 C53.70055168 1.9786159 56.07880813 2.11205961 58.45703125 2.24609375 C59.5725386 2.3065538 60.68804596 2.36701385 61.83735657 2.42930603 C63.38123299 2.51928612 63.38123299 2.51928612 64.95629883 2.61108398 C66.31287346 2.68769508 66.31287346 2.68769508 67.69685364 2.76585388 C70 3 70 3 73 4 C74.88485874 4.17221598 76.77443626 4.29460311 78.66479492 4.38891602 C80.40626045 4.4788961 80.40626045 4.4788961 82.1829071 4.57069397 C84.06270012 4.66138405 84.06270012 4.66138405 85.98046875 4.75390625 C87.90515739 4.85166603 87.90515739 4.85166603 89.86872864 4.95140076 C93.276504 5.12444261 96.68451079 5.2924218 100.09259033 5.45935059 C103.57164634 5.63065276 107.05045987 5.80673806 110.52929688 5.98242188 C117.35263481 6.32629823 124.17622915 6.6648272 131 7 C131 7.66 131 8.32 131 9 C132.43460571 8.97498413 132.43460571 8.97498413 133.89819336 8.94946289 C147.51082828 8.79373477 161.06663475 9.49041138 174.65600586 10.22680664 C177.29065721 10.36890427 179.92526671 10.5083964 182.56030273 10.64282227 C186.39595383 10.8388871 190.23120729 11.04139439 194.06640625 11.24609375 C195.2515834 11.3065538 196.43676056 11.36701385 197.65785217 11.42930603 C198.74086105 11.48929276 199.82386993 11.54927948 200.93969727 11.61108398 C201.89578384 11.66215805 202.85187042 11.71323212 203.83692932 11.76585388 C206 12 206 12 207 13 C208.68183948 13.23287008 210.3712416 13.41264166 212.0625 13.5625 C212.98160156 13.64628906 213.90070313 13.73007813 214.84765625 13.81640625 C215.55792969 13.87699219 216.26820313 13.93757812 217 14 C217 14.66 217 15.32 217 16 C211.34015439 17.83791182 205.9192843 18.57130167 200 19.0625 C199.05680908 19.14556396 198.11361816 19.22862793 197.1418457 19.31420898 C188.82176545 20.01068784 180.49462722 20.39483915 172.15039062 20.65844727 C171.22806641 20.68994873 170.30574219 20.7214502 169.35546875 20.75390625 C168.53715576 20.77783447 167.71884277 20.8017627 166.87573242 20.82641602 C164.98730232 20.79971781 164.98730232 20.79971781 164 22 C161.9747839 22.15694755 159.94400279 22.24192704 157.91357422 22.30102539 C157.25831379 22.32067541 156.60305336 22.34032543 155.92793655 22.36057091 C153.67864479 22.42511844 151.42924816 22.48081731 149.1796875 22.53515625 C147.98612955 22.56564906 147.98612955 22.56564906 146.76845932 22.59675789 C124.1682329 23.16408114 101.5603995 23.32326025 78.9538765 23.39287376 C71.6490634 23.41551856 64.34499622 23.45804585 57.04050934 23.52644199 C51.18584666 23.57935784 45.33140682 23.59947182 39.47652817 23.60820198 C37.01493515 23.61673565 34.55335446 23.63550163 32.09192276 23.6649456 C28.67934745 23.7037323 25.26869921 23.70491705 21.85595703 23.69702148 C20.35387192 23.7270224 20.35387192 23.7270224 18.82144165 23.75762939 C12.91673312 23.69623099 9.64181508 22.77735916 5.33270073 18.66030979 C1.009372 13.27420557 0.49796691 6.6586549 0 0 Z " fill="#000000" transform="translate(26,221)"/>
<path d="M0 0 C0.33 0 0.66 0 1 0 C1.10022461 0.589021 1.20044922 1.17804199 1.30371094 1.78491211 C1.7736593 4.50469829 2.26171311 7.22094869 2.75 9.9375 C2.90726563 10.86369141 3.06453125 11.78988281 3.2265625 12.74414062 C4.22830597 18.2344654 5.62547534 22.97799601 8.13085938 27.97460938 C9.54321724 31.26587927 9.74161283 34.44717645 10 38 C9.34 37.67 8.68 37.34 8 37 C7.29928082 34.85662367 6.68946495 32.68321982 6.125 30.5 C5.01372775 26.28014018 3.8140998 22.36469751 1.75 18.5 C-1.07336665 12.68783505 -0.3226325 6.30029585 0 0 Z " fill="#BE3A00" transform="translate(150,133)"/>
<path d="M0 0 C4.88764045 5.86516854 4.88764045 5.86516854 6 9 C5.71050922 10.34353414 5.38155437 11.67965718 5 13 C4.15615325 11.58957044 3.32530504 10.17135868 2.5 8.75 C2.0359375 7.96109375 1.571875 7.1721875 1.09375 6.359375 C0 4 0 4 0 0 Z " fill="#A12700" transform="translate(160,171)"/>
</svg>
